HIERARCHY
ROOT Hips
{
    OFFSET   0.000000   0.000000   0.000000
    CHANNELS 6 Xposition Yposition Zposition Zrotation Xrotation Yrotation
    JOINT Chest
    {
        OFFSET   0.000000   8.007230   0.000000
        CHANNELS 3 Zrotation Xrotation Yrotation
        JOINT Chest2
        {
            OFFSET   0.000000  22.077100   0.000000
            CHANNELS 3 Zrotation Xrotation Yrotation
            JOINT Neck
            {
                OFFSET   0.000000  23.254800  -0.000021
                CHANNELS 3 Zrotation Xrotation Yrotation
                JOINT Head
                {
                    OFFSET   0.000000  14.370000   1.956610
                    CHANNELS 3 Zrotation Xrotation Yrotation
                    End Site
                    {
                        OFFSET   0.000000  19.566000   0.000000
                    }
                }
            }
            JOINT LeftCollar
            {
                OFFSET   3.911900  19.017000  -0.467063
                CHANNELS 3 Zrotation Xrotation Yrotation
                JOINT LeftShoulder
                {
                    OFFSET  10.383700   0.000000   0.000000
                    CHANNELS 3 Zrotation Xrotation Yrotation
                    JOINT LeftElbow
                    {
                        OFFSET  26.662100   0.001529   0.000325
                        CHANNELS 3 Zrotation Xrotation Yrotation
                        JOINT LeftWrist
                        {
                            OFFSET  28.869000  -0.000011  -0.000096
                            CHANNELS 3 Zrotation Xrotation Yrotation
                            JOINT LeftFinger0
                            {
                                OFFSET   2.044650  -2.323460   3.252850
                                CHANNELS 3 Zrotation Xrotation Yrotation
                                JOINT LeftFinger01
                                {
                                    OFFSET   3.088130   0.000000   0.000000
                                    CHANNELS 3 Zrotation Xrotation Yrotation
                                    JOINT LeftFinger02
                                    {
                                        OFFSET   2.639460   0.000000   0.000000
                                        CHANNELS 3 Zrotation Xrotation Yrotation
                                        End Site
                                        {
                                            OFFSET   2.582190   0.000000   0.000000
                                        }
                                    }
                                }
                            }
                            JOINT LeftFinger1
                            {
                                OFFSET   8.364480   0.000000   3.252850
                                CHANNELS 3 Zrotation Xrotation Yrotation
                                JOINT LeftFinger11
                                {
                                    OFFSET   4.646930   0.000000   0.000000
                                    CHANNELS 3 Zrotation Xrotation Yrotation
                                    JOINT LeftFinger12
                                    {
                                        OFFSET   2.323460   0.000000   0.000000
                                        CHANNELS 3 Zrotation Xrotation Yrotation
                                        End Site
                                        {
                                            OFFSET   2.273050   0.000000   0.000000
                                        }
                                    }
                                }
                            }
                            JOINT LeftFinger2
                            {
                                OFFSET   8.364480   0.000016   1.078090
                                CHANNELS 3 Zrotation Xrotation Yrotation
                                JOINT LeftFinger21
                                {
                                    OFFSET   5.111620   0.000000   0.000000
                                    CHANNELS 3 Zrotation Xrotation Yrotation
                                    JOINT LeftFinger22
                                    {
                                        OFFSET   2.788160   0.000017   0.000000
                                        CHANNELS 3 Zrotation Xrotation Yrotation
                                        End Site
                                        {
                                            OFFSET   2.727660   0.000000   0.000000
                                        }
                                    }
                                }
                            }
                            JOINT LeftFinger3
                            {
                                OFFSET   7.899780   0.000015  -1.078090
                                CHANNELS 3 Zrotation Xrotation Yrotation
                                JOINT LeftFinger31
                                {
                                    OFFSET   4.646920   0.000000   0.000000
                                    CHANNELS 3 Zrotation Xrotation Yrotation
                                    JOINT LeftFinger32
                                    {
                                        OFFSET   2.323470   0.000000   0.000000
                                        CHANNELS 3 Zrotation Xrotation Yrotation
                                        End Site
                                        {
                                            OFFSET   2.273050   0.000000   0.000000
                                        }
                                    }
                                }
                            }
                            JOINT LeftFinger4
                            {
                                OFFSET   7.435090   0.000000  -3.252850
                                CHANNELS 3 Zrotation Xrotation Yrotation
                                JOINT LeftFinger41
                                {
                                    OFFSET   3.717550   0.000000   0.000000
                                    CHANNELS 3 Zrotation Xrotation Yrotation
                                    JOINT LeftFinger42
                                    {
                                        OFFSET   1.858760   0.000000   0.000000
                                        CHANNELS 3 Zrotation Xrotation Yrotation
                                        End Site
                                        {
                                            OFFSET   1.818440   0.000000   0.000000
                                        }
                                    }
                                }
                            }
                        }
                    }
                }
            }
            JOINT RightCollar
            {
                OFFSET  -3.911900  19.017000  -0.467062
                CHANNELS 3 Zrotation Xrotation Yrotation
                JOINT RightShoulder
                {
                    OFFSET -10.383700   0.000015   0.000000
                    CHANNELS 3 Zrotation Xrotation Yrotation
                    JOINT RightElbow
                    {
                        OFFSET -26.662100   0.001341   0.000385
                        CHANNELS 3 Zrotation Xrotation Yrotation
                        JOINT RightWrist
                        {
                            OFFSET -28.869000   0.000025  -0.000080
                            CHANNELS 3 Zrotation Xrotation Yrotation
                            JOINT RightFinger0
                            {
                                OFFSET  -2.044650  -2.323490   3.252850
                                CHANNELS 3 Zrotation Xrotation Yrotation
                                JOINT RightFinger01
                                {
                                    OFFSET  -3.088130   0.000000   0.000000
                                    CHANNELS 3 Zrotation Xrotation Yrotation
                                    JOINT RightFinger02
                                    {
                                        OFFSET  -2.639460   0.000000   0.000000
                                        CHANNELS 3 Zrotation Xrotation Yrotation
                                        End Site
                                        {
                                            OFFSET  -2.582190   0.000000   0.000000
                                        }
                                    }
                                }
                            }
                            JOINT RightFinger1
                            {
                                OFFSET  -8.364480   0.000000   3.252850
                                CHANNELS 3 Zrotation Xrotation Yrotation
                                JOINT RightFinger11
                                {
                                    OFFSET  -4.646930   0.000000   0.000000
                                    CHANNELS 3 Zrotation Xrotation Yrotation
                                    JOINT RightFinger12
                                    {
                                        OFFSET  -2.323470   0.000000   0.000000
                                        CHANNELS 3 Zrotation Xrotation Yrotation
                                        End Site
                                        {
                                            OFFSET  -2.273050   0.000000   0.000000
                                        }
                                    }
                                }
                            }
                            JOINT RightFinger2
                            {
                                OFFSET  -8.364480   0.000000   1.078090
                                CHANNELS 3 Zrotation Xrotation Yrotation
                                JOINT RightFinger21
                                {
                                    OFFSET  -5.111610   0.000000   0.000000
                                    CHANNELS 3 Zrotation Xrotation Yrotation
                                    JOINT RightFinger22
                                    {
                                        OFFSET  -2.788160   0.000000   0.000000
                                        CHANNELS 3 Zrotation Xrotation Yrotation
                                        End Site
                                        {
                                            OFFSET  -2.727660   0.000000   0.000000
                                        }
                                    }
                                }
                            }
                            JOINT RightFinger3
                            {
                                OFFSET  -7.899780   0.000000  -1.078090
                                CHANNELS 3 Zrotation Xrotation Yrotation
                                JOINT RightFinger31
                                {
                                    OFFSET  -4.646920   0.000000   0.000000
                                    CHANNELS 3 Zrotation Xrotation Yrotation
                                    JOINT RightFinger32
                                    {
                                        OFFSET  -2.323470   0.000000   0.000000
                                        CHANNELS 3 Zrotation Xrotation Yrotation
                                        End Site
                                        {
                                            OFFSET  -2.273050   0.000000   0.000000
                                        }
                                    }
                                }
                            }
                            JOINT RightFinger4
                            {
                                OFFSET  -7.435090   0.000000  -3.252850
                                CHANNELS 3 Zrotation Xrotation Yrotation
                                JOINT RightFinger41
                                {
                                    OFFSET  -3.717550   0.000000   0.000000
                                    CHANNELS 3 Zrotation Xrotation Yrotation
                                    JOINT RightFinger42
                                    {
                                        OFFSET  -1.858770   0.000000   0.000000
                                        CHANNELS 3 Zrotation Xrotation Yrotation
                                        End Site
                                        {
                                            OFFSET  -1.818440   0.000000   0.000000
                                        }
                                    }
                                }
                            }
                        }
                    }
                }
            }
        }
    }
    JOINT LeftHip
    {
        OFFSET   9.783010   0.000000   0.000000
        CHANNELS 3 Zrotation Xrotation Yrotation
        JOINT LeftKnee
        {
            OFFSET   0.000070 -41.789100   0.000028
            CHANNELS 3 Zrotation Xrotation Yrotation
            JOINT LeftAnkle
            {
                OFFSET   0.000087 -41.133200  -0.000100
                CHANNELS 3 Zrotation Xrotation Yrotation
                JOINT LeftToe
                {
                    OFFSET   0.000000  -6.358960  14.674500
                    CHANNELS 3 Zrotation Xrotation Yrotation
                    End Site
                    {
                        OFFSET   0.000000   0.000000   3.913200
                    }
                }
            }
        }
    }
    JOINT RightHip
    {
        OFFSET  -9.783020   0.000000   0.000000
        CHANNELS 3 Zrotation Xrotation Yrotation
        JOINT RightKnee
        {
            OFFSET   0.000044 -41.789100  -0.000870
            CHANNELS 3 Zrotation Xrotation Yrotation
            JOINT RightAnkle
            {
                OFFSET  -0.000090 -41.133200  -0.000245
                CHANNELS 3 Zrotation Xrotation Yrotation
                JOINT RightToe
                {
                    OFFSET   0.000000  -6.358960  14.674500
                    CHANNELS 3 Zrotation Xrotation Yrotation
                    End Site
                    {
                        OFFSET   0.000000   0.000000   3.913200
                    }
                }
            }
        }
    }
}
MOTION
Frames: 5
Frame Time:   0.016667
  0.013442  89.427700  -0.753740   0.422430 -12.997900   3.701770  -1.187970  10.376300   1.062750  -2.641870  20.725600   2.409040   0.211736  -4.403150   0.015702   0.353750  -8.928390   8.118680  16.294300   5.350970   6.169110 -84.915200 -24.563300  12.323100   1.511530 -13.770700 -98.036400 131.741000 -60.378300 136.542000  33.459900  13.860700 -53.759800 -28.384800   0.002613   0.002931  -9.192450   0.000749   0.001844 -13.564600   0.447713  -1.854630 -11.104200   0.003784  -0.007310  -7.772960   0.002953  -0.008787 -19.429200   0.401657  -1.138590 -19.433000  -0.001537  -0.010479 -12.942400  -0.000954   0.003662 -13.657900  -0.047853   0.197296 -13.658000   0.000577  -0.007766  -9.096220   0.009863  -0.004458 -19.376000  -4.996610  13.909200 -29.978600  -0.003448  -0.009335 -19.965800  -0.002346  -0.000658 -14.270200   7.371530  -6.480040  83.867100 -19.371000  -8.171230   3.749030 -14.298100  94.067100 -118.274000 -59.233600 -103.412000 -38.203000  25.800900  61.544500  25.849100   0.000937  -0.000325   7.924510  -0.007533   0.005259  19.747100  -1.282560  -3.567400  16.189300   0.000603   0.001115  11.332500   0.000545   0.000695  18.918700  -2.011170  -5.846060  19.021400   0.000236   0.000121  12.668300  -0.000085   0.000668  23.651300  -3.928910  -8.891820  23.956800  -0.000107  -0.000067  15.955200  -0.000179   0.000213  24.063500  -3.993110  -8.863350  36.559600   0.000451  -0.000230  24.348600   0.000789  -0.003833   4.109490  13.644600  -1.796800  -0.019006   2.583600  12.710500  -3.650790  -3.077390  -0.109273  -0.000000   0.000000   0.000000  -1.478350  14.514700  -8.087550   1.232750   2.075120 -12.623800  -0.371253  -2.976200  -1.675130  -0.000000   0.000000   0.000000
  0.040542  89.430300  -0.728781   0.410157 -13.010300   3.677660  -1.177190  10.333500   1.063370  -2.618080  20.640300   2.407290   0.196304  -4.402720   0.014196   0.327523  -8.927300   8.133810  16.260400   5.315940   6.134030 -84.919000 -24.637800  12.334900   1.567630 -13.591900 -97.913500 131.862000 -60.473800 136.751000  33.459800  13.888900 -53.780800 -28.379800   0.002621   0.002974  -9.189940   0.000785   0.001856 -13.599100   0.448832  -1.857740 -11.132500   0.003808  -0.007397  -7.792710   0.003006  -0.008904 -19.451800   0.404813  -1.146980 -19.455600  -0.001540  -0.010586 -12.957400  -0.000968   0.003713 -13.703900  -0.044661   0.184044 -13.704000   0.000617  -0.007870  -9.126850   0.009944  -0.004482 -19.424600  -5.012810  13.914700 -30.052100  -0.003449  -0.009523 -20.014700  -0.002348  -0.000680 -14.249100   7.358870  -6.463950  83.788700 -19.465900  -8.252160   3.692540 -14.237400  94.079000 -118.180000 -59.266700 -103.415000 -38.165500  25.764900  61.483800  25.880900   0.000913  -0.000283   7.940400  -0.007521   0.005313  19.845100  -1.304500  -3.602860  16.270400   0.000625   0.001143  11.389300   0.000572   0.000724  19.043600  -2.045190  -5.888360  19.148800   0.000231   0.000179  12.753200  -0.000035   0.000727  23.807900  -3.974960  -8.922130  24.117900  -0.000098  -0.000027  16.062500  -0.000169   0.000234  24.229200  -4.040840  -8.892630  36.814800   0.000467  -0.000171  24.518600   0.000780  -0.003843   4.098400  13.670800  -1.796410  -0.021922   2.597090  12.709900  -3.632990  -3.109820  -0.081976   0.000000   0.000000   0.000000  -1.482570  14.529400  -8.059820   1.226390   2.089120 -12.631500  -0.358122  -2.990000  -1.673780  -0.000000   0.000000   0.000000
  0.065836  89.432800  -0.705995   0.401056 -13.024600   3.662660  -1.166900  10.293100   1.063340  -2.595890  20.559800   2.403220   0.179065  -4.399710   0.012690   0.299149  -8.921580   8.150890  16.225200   5.273470   6.097990 -84.905900 -24.698900  12.349300   1.603380 -13.429900 -97.806800 132.021000 -60.585700 136.988000  33.457100  13.923500 -53.872800 -28.374800   0.002629   0.003017  -9.187430   0.000821   0.001867 -13.603700   0.455177  -1.879510 -11.136500   0.003831  -0.007483  -7.795530   0.003060  -0.009022 -19.468900   0.420549  -1.189050 -19.473100  -0.001542  -0.010690 -12.969100  -0.000982   0.003768 -13.717300  -0.034828   0.143521 -13.717400   0.000657  -0.007978  -9.135760   0.010019  -0.004500 -19.435700  -5.015120  13.915500 -30.072200  -0.003451  -0.009703 -20.028100  -0.002351  -0.000701 -14.233300   7.345270  -6.442330  83.705300 -19.562700  -8.338710   3.645720 -14.157200  94.110400 -118.076000 -59.333300 -103.407000 -38.162800  25.725400  61.420200  25.897100   0.000892  -0.000267   7.948530  -0.007501   0.005366  19.915800  -1.318510  -3.634000  16.329000   0.000647   0.001170  11.430300   0.000599   0.000752  19.164100  -2.068980  -5.930630  19.271300   0.000227   0.000232  12.834700   0.000000   0.000795  23.981300  -4.018520  -8.952430  24.296100  -0.000084  -0.000000  16.181200  -0.000157   0.000257  24.412800  -4.086170  -8.921900  37.097600   0.000482  -0.000112  24.707000   0.000771  -0.003858   4.088050  13.698200  -1.796020  -0.024754   2.610100  12.709400  -3.617710  -3.141240  -0.068415   0.000000   0.000000   0.000000  -1.485390  14.543600  -8.037900   1.219150   2.110000 -12.638800  -0.346483  -3.005280  -1.673610   0.000000   0.000000  -0.000000
  0.088091  89.433600  -0.684680   0.396352 -13.044100   3.656860  -1.156020  10.256800   1.054490  -2.570210  20.487800   2.381110   0.156150  -4.386450   0.011181   0.261071  -8.894530   8.160400  16.188200   5.214560   6.062640 -84.871000 -24.745000  12.394900   1.674990 -13.294200 -97.732800 132.125000 -60.662200 137.167000  33.373500  13.920000 -54.088700 -28.426800   0.002646   0.003055  -9.213430   0.000854   0.001879 -13.562100   0.471169  -1.952220 -11.102800   0.003850  -0.007574  -7.772000   0.003117  -0.009145 -19.532800   0.467713  -1.315390 -19.538200  -0.001538  -0.010794 -13.012400  -0.000995   0.003834 -13.702600  -0.011461   0.047689 -13.702600   0.000698  -0.008097  -9.125930   0.010088  -0.004506 -19.138300  -4.862060  13.722300 -29.584900  -0.003453  -0.009889 -19.703500  -0.002361  -0.000706 -14.224200   7.331350  -6.416180  83.621300 -19.660100  -8.424400   3.590710 -14.063700  94.141800 -117.927000 -59.413100 -103.356000 -38.150800  25.668100  61.375400  25.864900   0.000877  -0.000333   7.932450  -0.007489   0.005418  19.953600  -1.302100  -3.589840  16.358600   0.000673   0.001206  11.451000   0.000614   0.000761  19.279300  -2.070260  -5.905100  19.386000   0.000222   0.000270  12.911100   0.000000   0.000865  24.187500  -4.040790  -8.918870  24.503100  -0.000078  -0.000000  16.319100  -0.000139   0.000286  24.626200  -4.109280  -8.887860  37.418900   0.000497  -0.000055  24.921000   0.000762  -0.003872   4.078190  13.732300  -1.800270  -0.027588   2.621490  12.716700  -3.604900  -3.173370  -0.068212  -0.000000   0.000000   0.000000  -1.484890  14.574500  -8.025370   1.206600   2.120380 -12.644900  -0.333950  -3.023810  -1.674650  -0.000000   0.000000   0.000000
  0.109672  89.433900  -0.663570   0.393251 -13.065800   3.656310  -1.143340  10.224500   1.028830  -2.538740  20.424000   2.325630   0.131674  -4.370680   0.009667   0.219908  -8.862670   8.186300  16.141700   5.142950   6.042710 -84.818000 -24.762900  12.462700   1.736960 -13.226800 -97.700300 132.317000 -60.777300 137.424000  33.258000  13.908200 -54.332400 -28.548400   0.002666   0.003092  -9.274190   0.000885   0.001890 -13.520300   0.489508  -2.034410 -11.069200   0.003871  -0.007670  -7.748460   0.003174  -0.009268 -19.627000   0.502293  -1.408050 -19.633300  -0.001530  -0.010896 -13.075700  -0.001008   0.003900 -13.687800   0.005267  -0.020873 -13.687800   0.000740  -0.008214  -9.116100   0.010154  -0.004510 -18.839900  -4.708690  13.529200 -29.097600  -0.003454  -0.010074 -19.379000  -0.002370  -0.000715 -14.225200   7.308480  -6.381560  83.546000 -19.743100  -8.503710   3.531700 -13.963200  94.170900 -117.668000 -59.519500 -103.179000 -38.153800  25.618800  61.372800  25.821100   0.000858  -0.000399   7.910550  -0.007477   0.005469  20.054100  -1.284460  -3.513350  16.440300   0.000698   0.001245  11.508200   0.000629   0.000769  19.459300  -2.071180  -5.840360  19.565200   0.000219   0.000306  13.030400   0.000000   0.000936  24.450400  -4.056100  -8.841710  24.764400  -0.000066   0.000000  16.493100  -0.000128   0.000310  24.889900  -4.124180  -8.810400  37.812000   0.000514  -0.000000  25.182800   0.000757  -0.003885   4.069290  13.771300  -1.809180  -0.029229   2.627330  12.730100  -3.594080  -3.202680  -0.068185   0.000000   0.000000  -0.000000  -1.483270  14.609800  -8.014860   1.193580   2.129890 -12.651000  -0.319254  -3.043980  -1.679990   0.000000   0.000000   0.000000
